<?xml version="1.0" encoding="utf-8"?>
<!-- Generator: Adobe Illustrator 16.0.0, SVG Export Plug-In . SVG Version: 6.00 Build 0)  -->
<!DOCTYPE svg PUBLIC "-//W3C//DTD SVG 1.1//EN" "http://www.w3.org/Graphics/SVG/1.1/DTD/svg11.dtd">
<svg version="1.1" id="alpacio_logo" xmlns="http://www.w3.org/2000/svg" xmlns:xlink="http://www.w3.org/1999/xlink" x="0px" y="0px"
	 width="689.688px" height="1084.07px" viewBox="0 0 689.688 1084.07" enable-background="new 0 0 689.688 1084.07"
	 xml:space="preserve">
<g>
	<path d="M184.424,295.589c17.932,0,32.455,14.533,32.455,32.463c0,17.922-14.523,32.459-32.455,32.459
		c-17.925,0-32.444-14.537-32.444-32.459C151.979,310.122,166.499,295.589,184.424,295.589z"/>
	<path d="M675.629,594.268c21.63,22.715,21.63,68.151-23.778,82.214c-8.48,2.622-12.998,9.738-9.746,24.648
		c41.101,188.73-40.24,387.773-94.631,382.851c-71.619-6.492-33.678-163.896-172.119-160.156
		c-138.443,3.743-138.925,168.664-202.042,156.46c-86.441-16.745-70.408-390.45-28.799-598.52
		c3.236-16.221,4.292-25.798-17.249-28.577c-88.766-11.436-125.547-93.652-90.65-155.152c7.408-13.078-2.604-17.291-11.1-25.046
		c-49.751-45.433-25.961-129.804,64.5-152.516c3.761-0.946,11.219-3.26,1.088-14.855c-26.838-30.71-29.559-65.737-9.909-76.175
		c18.655-9.896,46.013-7.699,78.773,15.906c12.67,9.135,15.26,0.352,15.663-4.952c1.808-23.833,12.679-40.182,28.541-40.394
		c31.772-0.404,67.947,32.916,88.697,120.424c3.074,13.016,7.404,17.347,17.249,24.768c36.64,27.656,62.602,77.4,64.772,129.558
		c3.278,78.947-51.93,201.94-21.974,282.9c25.426,68.747,151.464,27.979,215.209,51.97c16.644,6.276,22.851,3.922,27.832-4.212
		C619.384,567.226,655.003,572.604,675.629,594.268z M229.542,413.54c51.678-29.753,54.125-91.169,21.96-122.274
		c-42.772-41.374-186.821-51.805-190.424,40.057c-0.246,6.106,2.199,15.047,11.16,14.146c26.831-2.702,30.054,20.905,9.506,33.588
		c-6.911,4.257-9.506,16.291-2.097,23.877C111.349,435.352,190.296,436.138,229.542,413.54z"/>
</g>
</svg>
